<svg xmlns:mydata="http://www.w3.org/2000/svg" mydata:contrastcolor="ffffff" mydata:template="Default" mydata:presentation="2.5" mydata:layouttype="undefined" mydata:specialfontid="undefined" mydata:id1="462" mydata:id2="372" mydata:companyname="Entrega" mydata:companytagline="" version="1.1" xmlns="http://www.w3.org/2000/svg" xmlns:xlink="http://www.w3.org/1999/xlink" viewBox="0 0 550 470" class="svg-primary-tile"><g fill="none" fill-rule="none" stroke="none" stroke-width="1" stroke-linecap="butt" stroke-linejoin="miter" stroke-miterlimit="10" stroke-dasharray="" stroke-dashoffset="0" font-family="none" font-weight="none" font-size="none" text-anchor="none" style="mix-blend-mode: normal"><g data-paper-data="{&quot;isGlobalGroup&quot;:true,&quot;bounds&quot;:{&quot;x&quot;:71.8566606123018,&quot;y&quot;:183.30979652788207,&quot;width&quot;:406.28667877539647,&quot;height&quot;:103.3802983948411}}"><g data-paper-data="{&quot;isPrimaryText&quot;:true}"><path d="M88.72164,243.66934v15.15953h24.82373v12.79085h-37.61459v-12.79085v-11.08541c-0.31582,-0.94747 -0.74219,-1.7844 -1.27909,-2.5108c-0.5369,-0.72639 -1.27909,-1.2475 -2.22656,-1.56333zM71.85666,243.00611c0.31582,-0.31582 0.77377,-0.69481 1.37383,-1.13696c0.60006,-0.44215 1.50016,-0.66323 2.70029,-0.66323v-10.61167v-19.42315v-12.79085h37.61459v12.79085h-24.82373v19.42315h15.34903v12.41187z" data-paper-data="{&quot;glyphName&quot;:&quot;E&quot;,&quot;glyphIndex&quot;:0,&quot;firstGlyphOfWord&quot;:true,&quot;word&quot;:1}" fill="#b1b3b3" fill-rule="nonzero"></path><path d="M146.4226,271.52498l-7.39027,-27.95039h25.58171v27.95039h-5.40058h-7.39027zM151.72844,242.91136h-12.79085l-4.64261,-17.62295v17.62295h-17.14922c0.25266,-0.44215 0.56848,-0.82114 0.94747,-1.13696c0.31582,-0.31582 0.75798,-0.58427 1.32646,-0.80535c0.56848,-0.22108 1.26329,-0.33161 2.08444,-0.33161v-42.35194h5.68482h7.10603h5.68482zM151.82319,198.28549h12.79085v44.62587h-12.79085zM121.50412,271.52498v-24.25525c-0.31582,-0.82114 -0.64744,-1.54754 -0.99484,-2.17918c-0.34741,-0.63165 -0.86851,-1.13696 -1.56333,-1.51595h15.34903v27.95039z" data-paper-data="{&quot;glyphName&quot;:&quot;N&quot;,&quot;glyphIndex&quot;:1,&quot;word&quot;:1}" fill="#b1b3b3" fill-rule="nonzero"></path><path d="M200.80742,243.57459v27.95039h-12.79085v-23.87626c-0.31582,-0.94747 -0.74219,-1.7844 -1.27909,-2.5108c-0.5369,-0.72639 -1.27909,-1.2475 -2.22656,-1.56333zM188.01657,211.07635h-12.41187v-12.79085h12.41187h12.79085h12.41187v12.79085h-12.41187v31.83502h-16.86498c0.31582,-0.31582 0.77377,-0.69481 1.37383,-1.13696c0.60006,-0.44215 1.50016,-0.66323 2.70029,-0.66323z" data-paper-data="{&quot;glyphName&quot;:&quot;T&quot;,&quot;glyphIndex&quot;:2,&quot;word&quot;:1}" fill="#b1b3b3" fill-rule="nonzero"></path><path d="M217.38816,242.91136c0.25266,-0.31582 0.69481,-0.69481 1.32646,-1.13696c0.63165,-0.44215 1.51595,-0.66323 2.65292,-0.66323v-30.03482v-12.79085h29.94007l0.09475,0.47374v-0.47374c1.76861,0 3.42669,0.33161 4.97422,0.99484c1.54754,0.66323 2.88979,1.56333 4.02675,2.70029c1.13696,1.13696 2.03706,2.47921 2.70029,4.02675c0.66323,1.54754 0.99484,3.17403 0.99484,4.87947v19.3284c0,1.70545 -0.33161,3.33194 -0.99484,4.87947c-0.66323,1.54754 -1.56333,2.88979 -2.70029,4.02675c-1.13696,1.13696 -2.47921,2.03706 -4.02675,2.70029c-1.54754,0.66323 -3.17403,0.99484 -4.87947,0.99484v0.09475zM251.40236,215.8137c0,-1.32646 -0.45794,-2.44763 -1.37383,-3.36352c-0.91589,-0.91589 -2.00548,-1.37383 -3.26877,-1.37383h-12.60136v19.42315h12.60136c1.26329,0 2.35289,-0.47374 3.26877,-1.42121c0.91589,-0.94747 1.37383,-2.05285 1.37383,-3.31615zM251.6866,243.57459l8.52724,27.95039h-12.79085l-8.52724,-27.95039zM234.15839,243.57459v27.95039h-12.79085v-23.87626c-0.31582,-0.94747 -0.74219,-1.7844 -1.27909,-2.5108c-0.5369,-0.72639 -1.27909,-1.2475 -2.22656,-1.56333z" data-paper-data="{&quot;glyphName&quot;:&quot;R&quot;,&quot;glyphIndex&quot;:3,&quot;word&quot;:1}" fill="#b1b3b3" fill-rule="nonzero"></path><path d="M394.19744,243.66934v9.8537c0,1.45279 0.52111,2.70029 1.56333,3.74251c1.04222,1.04222 2.28972,1.56333 3.74251,1.56333h7.67451c1.13696,0 2.10023,-0.39478 2.88979,-1.18434c0.78956,-0.78956 1.18434,-1.75282 1.18434,-2.88979v-2.93716v-8.14825h12.79085v8.14825v3.2214v3.88463c0,1.76861 -0.33161,3.42669 -0.99484,4.97422c-0.66323,1.54754 -1.56333,2.88979 -2.70029,4.02675c-1.13696,1.13696 -2.46342,2.03706 -3.97938,2.70029c-1.51595,0.66323 -3.15824,0.99484 -4.92685,0.99484h-0.18949h-17.05447h-0.09475h-0.94747c-1.64228,-0.12633 -3.17403,-0.5369 -4.59523,-1.23171c-1.42121,-0.69481 -2.66871,-1.6107 -3.74251,-2.74767c-1.0738,-1.13696 -1.91073,-2.44763 -2.5108,-3.932c-0.60006,-1.48437 -0.9001,-3.07928 -0.9001,-4.78473v-11.18015c-0.31582,-0.94747 -0.74219,-1.7844 -1.27909,-2.5108c-0.5369,-0.72639 -1.27909,-1.2475 -2.22656,-1.56333zM400.64024,230.59424h23.40253v1.04222v11.36965h-23.40253zM377.33246,243.00611c0.31582,-0.31582 0.78956,-0.69481 1.42121,-1.13696c0.63165,-0.44215 1.51595,-0.66323 2.65292,-0.66323v-30.12957c0,-1.70545 0.30003,-3.28457 0.9001,-4.73735c0.60006,-1.45279 1.437,-2.74767 2.5108,-3.88463c1.0738,-1.13696 2.3213,-2.05285 3.74251,-2.74767c1.42121,-0.69481 2.95295,-1.10538 4.59523,-1.23171v-0.09475h18.09669h0.18949c1.76861,0 3.41089,0.33161 4.92685,0.99484c1.51595,0.66323 2.84241,1.56333 3.97938,2.70029c1.13696,1.13696 2.03706,2.47921 2.70029,4.02675c0.66323,1.54754 0.99484,3.20561 0.99484,4.97422v7.20078h-12.79085v-1.70545c0,-1.51595 -0.52111,-2.79504 -1.56333,-3.83726c-1.04222,-1.04222 -2.3213,-1.56333 -3.83726,-1.56333h-6.25331c-1.45279,0 -2.71608,0.52111 -3.78988,1.56333c-1.0738,1.04222 -1.6107,2.3213 -1.6107,3.83726v26.43443z" data-paper-data="{&quot;glyphName&quot;:&quot;G&quot;,&quot;glyphIndex&quot;:5,&quot;word&quot;:1}" fill="#b1b3b3" fill-rule="nonzero"></path><path d="M473.31124,243.66934l4.8321,27.95039h-12.8856l-2.74767,-15.63327h-16.2965l-2.74767,15.63327h-12.8856l4.16887,-24.25525c-0.31582,-0.88431 -0.74219,-1.64228 -1.27909,-2.27393c-0.5369,-0.63165 -1.27909,-1.10538 -2.22656,-1.42121zM448.39276,243.10086h-17.52821c0.25266,-0.31582 0.69481,-0.7106 1.32646,-1.18434c0.63165,-0.47374 1.54754,-0.7106 2.74767,-0.7106h0.85272l7.57977,-43.58365h3.50564h5.49533h3.97938h5.68482h3.31615l7.86401,45.47859h-12.8856l-0.28424,-1.04222l-5.40058,-31.55077h-0.56848l-5.59008,32.02451z" data-paper-data="{&quot;glyphName&quot;:&quot;A&quot;,&quot;glyphIndex&quot;:6,&quot;lastGlyphOfWord&quot;:true,&quot;word&quot;:1}" fill="#b1b3b3" fill-rule="nonzero"></path><g data-paper-data="{&quot;initialText&quot;:&quot;E&quot;,&quot;fillRule&quot;:&quot;nonzero&quot;,&quot;selectedEffects&quot;:{&quot;container&quot;:&quot;circle_simple_filledplus&quot;,&quot;transformation&quot;:&quot;&quot;,&quot;pattern&quot;:&quot;&quot;},&quot;blockLetter&quot;:&quot;O&quot;,&quot;blockLetterId&quot;:0,&quot;relativeBoundsIconToContainer&quot;:{&quot;top&quot;:-1.6430510933571715e-7,&quot;left&quot;:-0.018424784611234084},&quot;widthRatioIconToContainer&quot;:0.40325582766304036,&quot;heightRatioIconToContainer&quot;:0.7084464715536302,&quot;bounds&quot;:{&quot;x&quot;:270.06752947564917,&quot;y&quot;:183.30979652788207,&quot;width&quot;:103.38029839484108,&quot;height&quot;:103.3802983948411},&quot;isIcon&quot;:&quot;true&quot;,&quot;iconType&quot;:&quot;initial&quot;,&quot;iconStyle&quot;:&quot;icon-in-text&quot;,&quot;rawInitialId&quot;:462,&quot;line&quot;:1,&quot;iconInPrimaryText&quot;:true,&quot;suitableAsStandaloneIcon&quot;:true}" fill-rule="evenodd"><g data-paper-data="{&quot;isPathIcon&quot;:true}"><path d="M373.42583,236.53495l0.012,-0.517l0.007,-0.516l0.003,-0.496v-0.012l-0.003,-0.516l-0.007,-0.517l-0.013,-0.516l-0.017,-0.516l-0.022,-0.516l-0.028,-0.516l-0.032,-0.516l-0.038,-0.515l-0.043,-0.515l-0.048,-0.515l-0.053,-0.514l-0.058,-0.514l-0.064,-0.513l-0.068,-0.513l-0.074,-0.511l-0.079,-0.511l-0.084,-0.511l-0.089,-0.509l-0.095,-0.509l-0.099,-0.507l-0.105,-0.506l-0.11,-0.506l-0.115,-0.504l-0.121,-0.503l-0.125,-0.502l-0.131,-0.5l-0.135,-0.499l-0.141,-0.497l-0.146,-0.497l-0.151,-0.494l-0.156,-0.493l-0.16,-0.491l-0.166,-0.49l-0.17,-0.488l-0.176,-0.486l-0.18,-0.485l-0.185,-0.482l-0.19,-0.481l-0.194,-0.478l-0.196,-0.469l-0.203,-0.475l-0.209,-0.473l-0.212,-0.471l-0.218,-0.468l-0.222,-0.467l-0.227,-0.465l-0.231,-0.462l-0.236,-0.46l-0.241,-0.457l-0.245,-0.455l-0.25,-0.453l-0.255,-0.45l-0.258,-0.448l-0.264,-0.445l-0.268,-0.442l-0.272,-0.439l-0.277,-0.437l-0.282,-0.434l-0.285,-0.431l-0.291,-0.428l-0.294,-0.425l-0.299,-0.422l-0.303,-0.419l-0.307,-0.416l-0.311,-0.412l-0.316,-0.41l-0.32,-0.406l-0.323,-0.403l-0.328,-0.4l-0.332,-0.396l-0.335,-0.394l-0.34,-0.389l-0.343,-0.386l-0.347,-0.383l-0.351,-0.38l-0.354,-0.376l-0.358,-0.372l-0.36,-0.367l-0.21,-0.212l-0.367,-0.363l-0.37,-0.36l-0.374,-0.356l-0.378,-0.353l-0.381,-0.349l-0.384,-0.345l-0.388,-0.342l-0.391,-0.338l-0.395,-0.333l-0.398,-0.33l-0.401,-0.326l-0.405,-0.322l-0.408,-0.318l-0.41,-0.314l-0.414,-0.309l-0.418,-0.306l-0.42,-0.301l-0.424,-0.297l-0.426,-0.292l-0.429,-0.288l-0.433,-0.284l-0.435,-0.279l-0.438,-0.275l-0.441,-0.271l-0.443,-0.266l-0.446,-0.261l-0.449,-0.257l-0.451,-0.252l-0.454,-0.248l-0.456,-0.243l-0.458,-0.239l-0.461,-0.234l-0.464,-0.229l-0.465,-0.225l-0.468,-0.22l-0.469,-0.215l-0.472,-0.211l-0.471,-0.205l-0.275,-0.117l-0.477,-0.199l-0.479,-0.194l-0.48,-0.19l-0.483,-0.185l-0.484,-0.18l-0.487,-0.175l-0.487,-0.17l-0.49,-0.166l-0.492,-0.16l-0.493,-0.156l-0.494,-0.15l-0.497,-0.146l-0.497,-0.14l-0.5,-0.136l-0.5,-0.13l-0.502,-0.126l-0.503,-0.12l-0.504,-0.115l-0.505,-0.11l-0.507,-0.104l-0.507,-0.1l-0.509,-0.094l-0.509,-0.089l-0.51,-0.084l-0.511,-0.079l-0.512,-0.073l-0.513,-0.069l-0.513,-0.063l-0.513,-0.058l-0.515,-0.053l-0.514,-0.047l-0.515,-0.043l-0.516,-0.037l-0.515,-0.033l-0.516,-0.027l-0.516,-0.022l-0.517,-0.017l-0.516,-0.013l-0.516,-0.007l-0.508,-0.002l-0.516,0.002l-0.517,0.008l-0.516,0.012l-0.516,0.018l-0.517,0.022l-0.516,0.028l-0.515,0.032l-0.516,0.038l-0.515,0.043l-0.514,0.047l-0.515,0.054l-0.513,0.058l-0.513,0.063l-0.513,0.069l-0.512,0.073l-0.511,0.079l-0.51,0.084l-0.509,0.09l-0.509,0.094l-0.507,0.1l-0.507,0.105l-0.505,0.11l-0.504,0.115l-0.503,0.12l-0.502,0.126l-0.5,0.13l-0.499,0.136l-0.498,0.141l-0.496,0.146l-0.494,0.15l-0.493,0.156l-0.492,0.161l-0.489,0.166l-0.488,0.17l-0.487,0.175l-0.484,0.181l-0.482,0.185l-0.481,0.189l-0.479,0.195l-0.469,0.195l-0.474,0.204l-0.473,0.208l-0.471,0.213l-0.469,0.218l-0.466,0.222l-0.465,0.227l-0.462,0.231l-0.46,0.236l-0.457,0.241l-0.456,0.245l-0.452,0.25l-0.45,0.254l-0.448,0.259l-0.445,0.264l-0.442,0.268l-0.44,0.272l-0.436,0.277l-0.434,0.281l-0.431,0.286l-0.428,0.29l-0.425,0.295l-0.422,0.298l-0.419,0.303l-0.416,0.308l-0.413,0.311l-0.409,0.316l-0.407,0.319l-0.403,0.324l-0.399,0.328l-0.397,0.331l-0.393,0.336l-0.39,0.339l-0.386,0.344l-0.383,0.347l-0.379,0.35l-0.376,0.355l-0.372,0.357l-0.367,0.36l-0.212,0.211l-0.363,0.367l-0.36,0.37l-0.356,0.374l-0.353,0.378l-0.349,0.38l-0.346,0.385l-0.341,0.388l-0.338,0.391l-0.334,0.395l-0.33,0.397l-0.325,0.402l-0.322,0.404l-0.318,0.408l-0.314,0.411l-0.309,0.414l-0.306,0.417l-0.301,0.421l-0.297,0.423l-0.292,0.427l-0.289,0.429l-0.283,0.432l-0.28,0.436l-0.275,0.437l-0.27,0.441l-0.266,0.444l-0.261,0.446l-0.257,0.448l-0.253,0.452l-0.247,0.453l-0.244,0.457l-0.238,0.458l-0.234,0.461l-0.229,0.463l-0.225,0.466l-0.22,0.467l-0.215,0.47l-0.211,0.471l-0.205,0.472l-0.117,0.274l-0.199,0.477l-0.194,0.479l-0.19,0.481l-0.185,0.482l-0.18,0.485l-0.175,0.486l-0.17,0.488l-0.166,0.49l-0.16,0.492l-0.156,0.493l-0.151,0.494l-0.145,0.496l-0.141,0.498l-0.135,0.499l-0.131,0.501l-0.125,0.501l-0.12,0.503l-0.115,0.505l-0.11,0.505l-0.104,0.506l-0.1,0.508l-0.094,0.508l-0.089,0.51l-0.084,0.51l-0.079,0.511l-0.073,0.512l-0.069,0.512l-0.063,0.513l-0.058,0.514l-0.053,0.514l-0.048,0.515l-0.042,0.515l-0.038,0.515l-0.032,0.516l-0.027,0.516l-0.022,0.516l-0.018,0.516l-0.012,0.516l-0.007,0.517l-0.002,0.508l0.002,0.516l0.008,0.516l0.012,0.517l0.017,0.516l0.023,0.516l0.027,0.516l0.033,0.516l0.038,0.515l0.042,0.515l0.048,0.515l0.053,0.514l0.058,0.514l0.064,0.513l0.068,0.513l0.074,0.511l0.079,0.512l0.084,0.51l0.09,0.509l0.094,0.509l0.1,0.507l0.105,0.506l0.11,0.506l0.115,0.504l0.12,0.503l0.126,0.501l0.13,0.501l0.136,0.499l0.141,0.497l0.145,0.497l0.151,0.494l0.156,0.493l0.161,0.491l0.165,0.49l0.171,0.488l0.175,0.486l0.18,0.485l0.185,0.482l0.19,0.481l0.194,0.478l0.196,0.469l0.204,0.475l0.208,0.473l0.213,0.471l0.217,0.468l0.223,0.467l0.226,0.465l0.232,0.462l0.236,0.46l0.24,0.457l0.246,0.455l0.249,0.453l0.255,0.45l0.259,0.448l0.263,0.445l0.268,0.442l0.273,0.439l0.277,0.437l0.281,0.434l0.286,0.431l0.29,0.428l0.294,0.425l0.299,0.422l0.303,0.419l0.307,0.416l0.312,0.413l0.315,0.409l0.32,0.406l0.324,0.404l0.328,0.399l0.331,0.396l0.336,0.394l0.339,0.389l0.343,0.386l0.347,0.383l0.351,0.38l0.354,0.376l0.358,0.372l0.36,0.367l0.21,0.212l0.367,0.363l0.371,0.36l0.374,0.356l0.377,0.353l0.381,0.349l0.385,0.345l0.387,0.342l0.392,0.337l0.394,0.334l0.398,0.33l0.402,0.326l0.404,0.322l0.408,0.318l0.411,0.314l0.414,0.309l0.417,0.306l0.421,0.301l0.423,0.296l0.426,0.293l0.43,0.288l0.432,0.284l0.435,0.279l0.438,0.275l0.441,0.271l0.443,0.266l0.447,0.261l0.448,0.257l0.452,0.252l0.453,0.248l0.456,0.243l0.459,0.239l0.461,0.234l0.463,0.229l0.466,0.225l0.467,0.22l0.47,0.215l0.471,0.211l0.472,0.205l0.274,0.117l0.477,0.199l0.479,0.194l0.48,0.189l0.483,0.185l0.485,0.18l0.486,0.176l0.488,0.17l0.49,0.166l0.491,0.16l0.493,0.156l0.495,0.15l0.496,0.146l0.498,0.14l0.499,0.136l0.5,0.13l0.502,0.125l0.503,0.121l0.504,0.115l0.506,0.11l0.506,0.104l0.507,0.1l0.509,0.094l0.509,0.089l0.511,0.084l0.511,0.079l0.511,0.073l0.513,0.069l0.513,0.063l0.514,0.058l0.514,0.053l0.514,0.047l0.516,0.043l0.515,0.037l0.516,0.033l0.516,0.027l0.516,0.022l0.516,0.017l0.516,0.013l0.516,0.007l0.508,0.002l0.517,-0.002l0.516,-0.008l0.517,-0.012l0.516,-0.018l0.516,-0.022l0.516,-0.027l0.516,-0.033l0.515,-0.038l0.515,-0.043l0.515,-0.048l0.514,-0.052l0.514,-0.059l0.513,-0.063l0.512,-0.069l0.512,-0.073l0.511,-0.079l0.51,-0.085l0.51,-0.089l0.508,-0.094l0.508,-0.1l0.506,-0.105l0.505,-0.11l0.505,-0.115l0.502,-0.12l0.502,-0.126l0.501,-0.13l0.499,-0.136l0.497,-0.141l0.496,-0.146l0.495,-0.151l0.493,-0.155l0.491,-0.161l0.49,-0.166l0.488,-0.17l0.486,-0.175l0.484,-0.181l0.483,-0.185l0.48,-0.19l0.479,-0.194l0.469,-0.196l0.475,-0.203l0.473,-0.209l0.471,-0.212l0.468,-0.218l0.467,-0.222l0.464,-0.227l0.462,-0.231l0.46,-0.236l0.458,-0.241l0.455,-0.245l0.453,-0.25l0.45,-0.254l0.447,-0.259l0.445,-0.264l0.442,-0.268l0.44,-0.272l0.437,-0.277l0.433,-0.281l0.431,-0.286l0.429,-0.29l0.424,-0.295l0.423,-0.299l0.419,-0.303l0.415,-0.307l0.413,-0.311l0.41,-0.316l0.406,-0.319l0.403,-0.324l0.4,-0.328l0.396,-0.331l0.393,-0.336l0.39,-0.339l0.386,-0.344l0.383,-0.347l0.379,-0.35l0.376,-0.355l0.373,-0.357l0.367,-0.36l0.211,-0.21l0.364,-0.368l0.36,-0.37l0.356,-0.374l0.353,-0.377l0.348,-0.382l0.346,-0.384l0.341,-0.388l0.338,-0.391l0.334,-0.395l0.33,-0.397l0.326,-0.402l0.322,-0.404l0.318,-0.408l0.313,-0.411l0.31,-0.414l0.305,-0.418l0.301,-0.42l0.297,-0.423l0.293,-0.427l0.288,-0.429l0.284,-0.432l0.279,-0.435l0.275,-0.438l0.27,-0.441l0.266,-0.444l0.262,-0.446l0.257,-0.448l0.252,-0.452l0.248,-0.453l0.243,-0.457l0.238,-0.458l0.234,-0.461l0.23,-0.463l0.224,-0.465l0.22,-0.468l0.216,-0.47l0.211,-0.471l0.205,-0.472l0.117,-0.275l0.199,-0.476l0.194,-0.479l0.189,-0.481l0.185,-0.482l0.18,-0.485l0.176,-0.486l0.17,-0.488l0.165,-0.49l0.161,-0.492l0.155,-0.492l0.151,-0.495l0.146,-0.496l0.14,-0.498l0.136,-0.499l0.13,-0.501l0.125,-0.501l0.12,-0.503l0.115,-0.505l0.11,-0.505l0.105,-0.506l0.099,-0.508l0.094,-0.508l0.09,-0.51l0.084,-0.51l0.078,-0.511l0.074,-0.512l0.068,-0.512l0.063,-0.513l0.058,-0.514l0.053,-0.514l0.048,-0.515l0.042,-0.515l0.038,-0.515l0.032,-0.516l0.028,-0.516l0.022,-0.516zM371.01282,234.01994l0.008,0.492l0.002,0.482v0.012l-0.002,0.485l-0.008,0.493l-0.012,0.493l-0.016,0.493l-0.021,0.493l-0.026,0.491l-0.031,0.492l-0.036,0.492l-0.041,0.491l-0.046,0.491l-0.05,0.49l-0.055,0.489l-0.061,0.489l-0.065,0.488l-0.07,0.488l-0.075,0.487l-0.08,0.485l-0.085,0.485l-0.09,0.485l-0.095,0.483l-0.1,0.482l-0.104,0.481l-0.11,0.48l-0.115,0.479l-0.119,0.478l-0.124,0.476l-0.129,0.475l-0.134,0.474l-0.139,0.473l-0.143,0.471l-0.149,0.469l-0.153,0.469l-0.158,0.466l-0.162,0.465l-0.167,0.464l-0.172,0.461l-0.176,0.461l-0.181,0.458l-0.185,0.457l-0.19,0.455l-0.11,0.257l-0.198,0.455l-0.201,0.45l-0.206,0.447l-0.21,0.446l-0.214,0.444l-0.219,0.442l-0.223,0.439l-0.227,0.437l-0.232,0.435l-0.236,0.432l-0.241,0.43l-0.244,0.427l-0.25,0.425l-0.253,0.422l-0.258,0.42l-0.262,0.417l-0.266,0.414l-0.27,0.412l-0.275,0.409l-0.279,0.405l-0.282,0.404l-0.287,0.4l-0.291,0.397l-0.295,0.395l-0.299,0.391l-0.303,0.389l-0.307,0.385l-0.31,0.382l-0.315,0.379l-0.318,0.376l-0.322,0.373l-0.326,0.37l-0.329,0.367l-0.333,0.363l-0.337,0.36l-0.34,0.357l-0.344,0.354l-0.347,0.35l-0.198,0.197l-0.354,0.347l-0.356,0.342l-0.359,0.338l-0.362,0.334l-0.365,0.331l-0.369,0.327l-0.371,0.324l-0.375,0.32l-0.378,0.316l-0.381,0.312l-0.384,0.308l-0.388,0.305l-0.39,0.301l-0.393,0.296l-0.396,0.293l-0.399,0.288l-0.402,0.285l-0.405,0.28l-0.408,0.276l-0.41,0.272l-0.414,0.268l-0.415,0.264l-0.419,0.259l-0.422,0.255l-0.423,0.251l-0.426,0.246l-0.429,0.242l-0.432,0.239l-0.433,0.233l-0.436,0.229l-0.439,0.225l-0.44,0.22l-0.443,0.217l-0.445,0.211l-0.447,0.208l-0.449,0.202l-0.452,0.199l-0.452,0.194l-0.448,0.187l-0.457,0.185l-0.458,0.181l-0.461,0.177l-0.461,0.171l-0.464,0.168l-0.465,0.162l-0.467,0.158l-0.468,0.153l-0.47,0.148l-0.471,0.144l-0.472,0.138l-0.474,0.134l-0.475,0.129l-0.477,0.124l-0.478,0.12l-0.478,0.114l-0.481,0.11l-0.481,0.105l-0.482,0.099l-0.483,0.095l-0.484,0.09l-0.485,0.085l-0.486,0.08l-0.487,0.075l-0.487,0.07l-0.488,0.065l-0.489,0.06l-0.49,0.056l-0.49,0.05l-0.49,0.046l-0.491,0.04l-0.492,0.036l-0.492,0.031l-0.492,0.026l-0.492,0.022l-0.493,0.016l-0.493,0.012l-0.493,0.007l-0.493,0.002l-0.485,-0.002l-0.493,-0.007l-0.493,-0.012l-0.493,-0.016l-0.493,-0.022l-0.492,-0.026l-0.492,-0.031l-0.491,-0.036l-0.491,-0.041l-0.491,-0.045l-0.49,-0.051l-0.49,-0.055l-0.488,-0.06l-0.489,-0.066l-0.487,-0.07l-0.487,-0.075l-0.486,-0.08l-0.485,-0.085l-0.484,-0.09l-0.483,-0.095l-0.482,-0.099l-0.481,-0.105l-0.48,-0.11l-0.479,-0.114l-0.478,-0.12l-0.476,-0.124l-0.476,-0.129l-0.474,-0.134l-0.472,-0.139l-0.471,-0.143l-0.47,-0.149l-0.468,-0.153l-0.467,-0.157l-0.465,-0.163l-0.463,-0.167l-0.462,-0.172l-0.46,-0.176l-0.458,-0.181l-0.457,-0.185l-0.455,-0.19l-0.257,-0.11l-0.455,-0.198l-0.45,-0.201l-0.448,-0.206l-0.446,-0.21l-0.443,-0.214l-0.442,-0.219l-0.439,-0.223l-0.437,-0.227l-0.435,-0.232l-0.432,-0.236l-0.43,-0.241l-0.427,-0.245l-0.425,-0.249l-0.422,-0.253l-0.42,-0.257l-0.417,-0.262l-0.414,-0.267l-0.412,-0.27l-0.409,-0.275l-0.406,-0.278l-0.403,-0.283l-0.4,-0.287l-0.398,-0.291l-0.394,-0.295l-0.391,-0.299l-0.389,-0.303l-0.385,-0.306l-0.382,-0.311l-0.38,-0.314l-0.376,-0.319l-0.373,-0.322l-0.369,-0.326l-0.367,-0.329l-0.363,-0.333l-0.36,-0.337l-0.357,-0.34l-0.354,-0.343l-0.35,-0.347l-0.198,-0.199l-0.346,-0.354l-0.342,-0.356l-0.338,-0.359l-0.335,-0.362l-0.331,-0.365l-0.327,-0.368l-0.323,-0.372l-0.32,-0.375l-0.316,-0.378l-0.313,-0.381l-0.308,-0.384l-0.304,-0.387l-0.301,-0.391l-0.297,-0.393l-0.292,-0.396l-0.289,-0.399l-0.284,-0.402l-0.28,-0.405l-0.277,-0.408l-0.272,-0.41l-0.267,-0.413l-0.264,-0.416l-0.259,-0.419l-0.256,-0.421l-0.25,-0.424l-0.247,-0.426l-0.242,-0.429l-0.238,-0.431l-0.234,-0.434l-0.229,-0.436l-0.225,-0.438l-0.22,-0.441l-0.216,-0.443l-0.212,-0.445l-0.207,-0.447l-0.203,-0.449l-0.199,-0.451l-0.194,-0.453l-0.187,-0.448l-0.185,-0.457l-0.181,-0.458l-0.176,-0.46l-0.172,-0.462l-0.167,-0.464l-0.162,-0.465l-0.158,-0.467l-0.153,-0.468l-0.148,-0.469l-0.144,-0.471l-0.139,-0.473l-0.133,-0.474l-0.13,-0.475l-0.124,-0.477l-0.119,-0.477l-0.115,-0.479l-0.109,-0.48l-0.105,-0.481l-0.1,-0.482l-0.094,-0.484l-0.09,-0.484l-0.085,-0.485l-0.08,-0.486l-0.075,-0.486l-0.07,-0.488l-0.065,-0.488l-0.061,-0.489l-0.055,-0.489l-0.05,-0.491l-0.046,-0.49l-0.041,-0.491l-0.035,-0.492l-0.031,-0.491l-0.027,-0.492l-0.021,-0.493l-0.016,-0.493l-0.012,-0.493l-0.007,-0.493l-0.002,-0.493l0.002,-0.485l0.007,-0.493l0.012,-0.493l0.016,-0.493l0.022,-0.492l0.026,-0.493l0.031,-0.491l0.036,-0.492l0.04,-0.491l0.046,-0.491l0.05,-0.49l0.056,-0.489l0.06,-0.489l0.065,-0.488l0.071,-0.488l0.075,-0.486l0.08,-0.486l0.085,-0.485l0.09,-0.485l0.094,-0.483l0.1,-0.482l0.105,-0.481l0.109,-0.48l0.115,-0.479l0.119,-0.478l0.125,-0.476l0.129,-0.475l0.134,-0.474l0.138,-0.473l0.144,-0.471l0.148,-0.469l0.153,-0.469l0.158,-0.466l0.163,-0.465l0.167,-0.464l0.171,-0.462l0.177,-0.46l0.181,-0.458l0.185,-0.457l0.19,-0.455l0.11,-0.257l0.197,-0.455l0.202,-0.45l0.205,-0.448l0.21,-0.445l0.215,-0.444l0.218,-0.442l0.223,-0.439l0.228,-0.437l0.232,-0.435l0.236,-0.432l0.24,-0.43l0.245,-0.427l0.249,-0.425l0.254,-0.422l0.257,-0.42l0.262,-0.417l0.266,-0.414l0.271,-0.412l0.274,-0.409l0.279,-0.406l0.283,-0.403l0.287,-0.4l0.29,-0.397l0.295,-0.395l0.299,-0.391l0.303,-0.389l0.307,-0.385l0.311,-0.382l0.314,-0.379l0.318,-0.376l0.322,-0.373l0.326,-0.37l0.33,-0.367l0.333,-0.363l0.336,-0.36l0.341,-0.357l0.343,-0.353l0.347,-0.351l0.199,-0.197l0.354,-0.347l0.356,-0.342l0.358,-0.338l0.362,-0.334l0.366,-0.331l0.368,-0.328l0.372,-0.323l0.375,-0.32l0.378,-0.316l0.381,-0.312l0.384,-0.309l0.387,-0.304l0.39,-0.301l0.393,-0.296l0.397,-0.293l0.399,-0.288l0.402,-0.285l0.405,-0.28l0.407,-0.276l0.411,-0.272l0.413,-0.268l0.416,-0.264l0.419,-0.259l0.421,-0.255l0.424,-0.251l0.426,-0.247l0.429,-0.242l0.431,-0.238l0.434,-0.233l0.436,-0.229l0.438,-0.225l0.441,-0.221l0.442,-0.216l0.445,-0.212l0.448,-0.207l0.449,-0.203l0.451,-0.198l0.453,-0.195l0.447,-0.186l0.457,-0.186l0.459,-0.18l0.46,-0.177l0.462,-0.172l0.463,-0.167l0.465,-0.162l0.467,-0.158l0.468,-0.153l0.47,-0.148l0.471,-0.144l0.473,-0.138l0.474,-0.134l0.475,-0.129l0.476,-0.124l0.478,-0.12l0.479,-0.114l0.48,-0.11l0.481,-0.104l0.482,-0.1l0.483,-0.095l0.485,-0.09l0.485,-0.085l0.485,-0.08l0.487,-0.075l0.488,-0.07l0.488,-0.065l0.489,-0.06l0.489,-0.056l0.49,-0.05l0.491,-0.046l0.491,-0.04l0.491,-0.036l0.492,-0.031l0.492,-0.026l0.493,-0.022l0.492,-0.016l0.493,-0.012l0.493,-0.007l0.493,-0.002l0.486,0.002l0.493,0.007l0.493,0.012l0.493,0.017l0.492,0.021l0.492,0.026l0.492,0.031l0.492,0.036l0.491,0.041l0.49,0.045l0.49,0.051l0.49,0.055l0.489,0.06l0.488,0.066l0.487,0.07l0.487,0.075l0.486,0.08l0.485,0.085l0.484,0.09l0.483,0.095l0.483,0.099l0.481,0.105l0.48,0.11l0.479,0.114l0.477,0.12l0.477,0.124l0.475,0.129l0.474,0.134l0.472,0.139l0.472,0.143l0.469,0.149l0.468,0.153l0.467,0.157l0.465,0.163l0.463,0.167l0.462,0.172l0.46,0.176l0.459,0.181l0.457,0.185l0.454,0.19l0.258,0.11l0.454,0.198l0.45,0.201l0.448,0.206l0.446,0.209l0.444,0.215l0.441,0.219l0.44,0.223l0.437,0.227l0.434,0.232l0.433,0.236l0.429,0.241l0.428,0.244l0.425,0.249l0.422,0.254l0.419,0.258l0.418,0.261l0.414,0.267l0.411,0.27l0.409,0.274l0.406,0.279l0.403,0.283l0.401,0.287l0.397,0.291l0.394,0.295l0.392,0.299l0.388,0.302l0.386,0.307l0.382,0.311l0.379,0.314l0.376,0.319l0.373,0.322l0.37,0.326l0.366,0.329l0.364,0.333l0.36,0.337l0.357,0.34l0.353,0.343l0.35,0.347l0.198,0.199l0.347,0.354l0.341,0.356l0.338,0.359l0.335,0.362l0.331,0.365l0.327,0.368l0.324,0.372l0.319,0.375l0.317,0.378l0.312,0.381l0.308,0.384l0.305,0.387l0.3,0.391l0.297,0.393l0.293,0.396l0.288,0.399l0.284,0.402l0.281,0.405l0.276,0.408l0.272,0.41l0.268,0.413l0.264,0.416l0.259,0.419l0.255,0.421l0.251,0.424l0.246,0.426l0.242,0.429l0.238,0.431l0.234,0.434l0.229,0.436l0.225,0.438l0.22,0.441l0.216,0.443l0.212,0.445l0.208,0.447l0.202,0.449l0.199,0.451l0.194,0.453l0.187,0.448l0.185,0.456l0.181,0.459l0.177,0.46l0.171,0.462l0.167,0.464l0.163,0.465l0.158,0.466l0.152,0.469l0.149,0.469l0.143,0.471l0.139,0.473l0.134,0.474l0.129,0.475l0.124,0.477l0.119,0.477l0.115,0.479l0.11,0.48l0.104,0.481l0.1,0.483l0.095,0.483l0.09,0.484l0.084,0.485l0.08,0.486l0.075,0.486l0.071,0.488l0.065,0.488l0.06,0.489l0.055,0.489l0.051,0.491l0.045,0.49l0.041,0.491l0.036,0.492l0.031,0.491l0.026,0.492l0.021,0.493l0.017,0.493z" fill="#b1b3b3"></path><path d="M321.75768,189.06881c-25.36707,0 -45.93113,20.56406 -45.93113,45.93113c0,25.36707 20.56406,45.93013 45.93113,45.93013c25.36607,0 45.93013,-20.56306 45.93013,-45.93013c0,-25.36707 -20.56406,-45.93113 -45.93013,-45.93113zM300.38162,241.86897c0.6,-0.442 1.501,-0.663 2.70101,-0.663v-42.82612h37.61411v12.79104h-24.82307v19.42306h15.34904v12.41204h-32.21409c0.315,-0.316 0.773,-0.695 1.373,-1.137zM301.80362,245.23298c-0.537,-0.727 -1.279,-1.248 -2.22701,-1.564h16.29705v15.16004h24.82307v12.79104h-37.61411v-23.87707c-0.316,-0.947 -0.743,-1.78401 -1.279,-2.51001z" fill="#101820"></path></g></g></g></g></g></svg>