<svg xmlns:mydata="http://www.w3.org/2000/svg" mydata:contrastcolor="ffffff" mydata:template="Default" mydata:presentation="2.5" mydata:layouttype="undefined" mydata:specialfontid="undefined" mydata:id1="462" mydata:id2="372" mydata:companyname="Entrega" mydata:companytagline="" version="1.1" xmlns="http://www.w3.org/2000/svg" xmlns:xlink="http://www.w3.org/1999/xlink" viewBox="0 0 550 470"><g fill="#b1b3b3" fill-rule="nonzero" stroke="none" stroke-width="1" stroke-linecap="butt" stroke-linejoin="miter" stroke-miterlimit="10" stroke-dasharray="" stroke-dashoffset="0" font-family="none" font-weight="none" font-size="none" text-anchor="none" style="mix-blend-mode: normal"><g data-paper-data="{&quot;isGlobalGroup&quot;:true,&quot;bounds&quot;:{&quot;x&quot;:65,&quot;y&quot;:189.90514160021996,&quot;width&quot;:420,&quot;height&quot;:90.18971679956007}}"><g data-paper-data="{&quot;isPrimaryText&quot;:true}"><path d="M85.5554,246.02832v18.47677h30.25571v15.58977h-45.84548v-15.58977v-13.51114c-0.38493,-1.1548 -0.90459,-2.17487 -1.55898,-3.06021c-0.65439,-0.88535 -1.55898,-1.52048 -2.71378,-1.90542zM65,245.21996c0.38493,-0.38493 0.94308,-0.84685 1.67446,-1.38576c0.73137,-0.53891 1.82843,-0.80836 3.29117,-0.80836v-12.93374v-23.67336v-15.58977h45.84548v15.58977h-30.25571v23.67336h18.70773v15.12785z" data-paper-data="{&quot;glyphName&quot;:&quot;E&quot;,&quot;glyphIndex&quot;:0,&quot;firstGlyphOfWord&quot;:true,&quot;word&quot;:1}"></path><path d="M155.8826,279.97938l-9.00742,-34.06654h31.17954v34.06654h-6.58235h-9.00742zM162.34946,245.10448h-15.58977l-5.65851,-21.47924v21.47924h-20.90184c0.30795,-0.53891 0.69288,-1.00082 1.1548,-1.38576c0.38493,-0.38493 0.92384,-0.71213 1.61672,-0.98158c0.69288,-0.26945 1.53973,-0.40418 2.54056,-0.40418v-51.61947h6.92879h8.66098h6.92879zM162.46494,190.7135h15.58977v54.39098h-15.58977zM125.51141,279.97938v-29.56283c-0.38493,-1.00082 -0.78911,-1.88617 -1.21254,-2.65604c-0.42343,-0.76987 -1.05856,-1.38576 -1.90542,-1.84768h18.70773v34.06654z" data-paper-data="{&quot;glyphName&quot;:&quot;N&quot;,&quot;glyphIndex&quot;:1,&quot;word&quot;:1}"></path><path d="M222.168,245.91284v34.06654h-15.58977v-29.10091c-0.38493,-1.1548 -0.90459,-2.17487 -1.55898,-3.06021c-0.65439,-0.88535 -1.55898,-1.52048 -2.71378,-1.90542zM206.57822,206.30327h-15.12785v-15.58977h15.12785h15.58977h15.12785v15.58977h-15.12785v38.80121h-20.5554c0.38493,-0.38493 0.94308,-0.84685 1.67446,-1.38576c0.73137,-0.53891 1.82843,-0.80836 3.29117,-0.80836z" data-paper-data="{&quot;glyphName&quot;:&quot;T&quot;,&quot;glyphIndex&quot;:2,&quot;word&quot;:1}"></path><path d="M242.37696,245.10448c0.30795,-0.38493 0.84685,-0.84685 1.61672,-1.38576c0.76987,-0.53891 1.84768,-0.80836 3.23343,-0.80836v-36.60709v-15.58977h36.49161l0.11548,0.5774v-0.5774c2.15562,0 4.17652,0.40418 6.06269,1.21254c1.88617,0.80836 3.52213,1.90542 4.90789,3.29117c1.38576,1.38576 2.48282,3.02172 3.29117,4.90789c0.80836,1.88617 1.21254,3.86857 1.21254,5.94721v23.55788c0,2.07864 -0.40418,4.06104 -1.21254,5.94721c-0.80836,1.88617 -1.90542,3.52213 -3.29117,4.90789c-1.38576,1.38576 -3.02172,2.48282 -4.90789,3.29117c-1.88617,0.80836 -3.86857,1.21254 -5.94721,1.21254v0.11548zM283.8342,212.07726c0,-1.61672 -0.55815,-2.98323 -1.67446,-4.09953c-1.1163,-1.1163 -2.44432,-1.67446 -3.98405,-1.67446h-15.35881v23.67336h15.35881c1.53973,0 2.86775,-0.5774 3.98405,-1.7322c1.1163,-1.1548 1.67446,-2.50206 1.67446,-4.04179zM284.18064,245.91284l10.39318,34.06654h-15.58977l-10.39318,-34.06654zM262.81688,245.91284v34.06654h-15.58977v-29.10091c-0.38493,-1.1548 -0.90459,-2.17487 -1.55898,-3.06021c-0.65439,-0.88535 -1.55898,-1.52048 -2.71378,-1.90542z" data-paper-data="{&quot;glyphName&quot;:&quot;R&quot;,&quot;glyphIndex&quot;:3,&quot;word&quot;:1}"></path><path d="M327.13913,246.02832v18.47677h30.25571v15.58977h-45.84548v-15.58977v-13.51114c-0.38493,-1.1548 -0.90459,-2.17487 -1.55898,-3.06021c-0.65439,-0.88535 -1.55898,-1.52048 -2.71378,-1.90542zM306.58372,245.21996c0.38493,-0.38493 0.94308,-0.84685 1.67446,-1.38576c0.73137,-0.53891 1.82843,-0.80836 3.29117,-0.80836v-12.93374v-23.67336v-15.58977h45.84548v15.58977h-30.25571v23.67336h18.70773v15.12785z" data-paper-data="{&quot;glyphName&quot;:&quot;E&quot;,&quot;glyphIndex&quot;:4,&quot;word&quot;:1}"></path><path d="M382.68491,246.02832v12.0099c0,1.77069 0.63514,3.29117 1.90542,4.56145c1.27028,1.27028 2.79076,1.90542 4.56145,1.90542h9.35386c1.38576,0 2.5598,-0.48117 3.52213,-1.4435c0.96233,-0.96233 1.4435,-2.13638 1.4435,-3.52213v-3.57987v-9.93126h15.58977v9.93126v3.92631v4.73467c0,2.15562 -0.40418,4.17652 -1.21254,6.06269c-0.80836,1.88617 -1.90542,3.52213 -3.29117,4.90789c-1.38576,1.38576 -3.00247,2.48282 -4.85015,3.29117c-1.84768,0.80836 -3.84933,1.21254 -6.00495,1.21254h-0.23096h-20.78636h-0.11548h-1.1548c-2.00165,-0.15397 -3.86857,-0.65439 -5.60077,-1.50124c-1.7322,-0.84685 -3.25268,-1.96316 -4.56145,-3.34891c-1.30877,-1.38576 -2.32884,-2.98323 -3.06021,-4.79241c-0.73137,-1.80918 -1.09706,-3.75309 -1.09706,-5.83173v-13.62662c-0.38493,-1.1548 -0.90459,-2.17487 -1.55898,-3.06021c-0.65439,-0.88535 -1.55898,-1.52048 -2.71378,-1.90542zM390.53753,230.09211h28.52351v1.27028v13.85757h-28.52351zM362.1295,245.21996c0.38493,-0.38493 0.96233,-0.84685 1.7322,-1.38576c0.76987,-0.53891 1.84768,-0.80836 3.23343,-0.80836v-36.72257c0,-2.07864 0.36569,-4.0033 1.09706,-5.77399c0.73137,-1.77069 1.75144,-3.34891 3.06021,-4.73467c1.30877,-1.38576 2.82925,-2.50206 4.56145,-3.34891c1.7322,-0.84685 3.59912,-1.34726 5.60077,-1.50124v-0.11548h22.05664h0.23096c2.15562,0 4.15727,0.40418 6.00495,1.21254c1.84768,0.80836 3.46439,1.90542 4.85015,3.29117c1.38576,1.38576 2.48282,3.02172 3.29117,4.90789c0.80836,1.88617 1.21254,3.90707 1.21254,6.06269v8.77646h-15.58977v-2.07864c0,-1.84768 -0.63514,-3.40665 -1.90542,-4.67693c-1.27028,-1.27028 -2.82925,-1.90542 -4.67693,-1.90542h-7.62167c-1.77069,0 -3.31042,0.63514 -4.61919,1.90542c-1.30877,1.27028 -1.96316,2.82925 -1.96316,4.67693v32.21886z" data-paper-data="{&quot;glyphName&quot;:&quot;G&quot;,&quot;glyphIndex&quot;:5,&quot;word&quot;:1}"></path><path d="M479.11053,246.02832l5.88947,34.06654h-15.70525l-3.34891,-19.05417h-19.86252l-3.34891,19.05417h-15.70525l5.08111,-29.56283c-0.38493,-1.07781 -0.90459,-2.00165 -1.55898,-2.77151c-0.65439,-0.76987 -1.55898,-1.34726 -2.71378,-1.7322zM448.73935,245.33544h-21.36376c0.30795,-0.38493 0.84685,-0.8661 1.61672,-1.4435c0.76987,-0.5774 1.88617,-0.8661 3.34891,-0.8661h1.03932l9.23838,-53.1207h4.27275h6.69783h4.85015h6.92879h4.04179l9.58482,55.4303h-15.70525l-0.34644,-1.27028l-6.58235,-38.45477h-0.69288l-6.81331,39.03217z" data-paper-data="{&quot;glyphName&quot;:&quot;A&quot;,&quot;glyphIndex&quot;:6,&quot;lastGlyphOfWord&quot;:true,&quot;word&quot;:1}"></path></g></g></g></svg>